<mxfile host="app.diagrams.net" agent="Mozilla/5.0 (Windows NT 10.0; Win64; x64) AppleWebKit/537.36 (KHTML, like Gecko) Chrome/131.0.0.0 Safari/537.36" version="26.0.6">
  <diagram id="C5RBs43oDa-KdzZeNtuy" name="Page-1">
    <mxGraphModel dx="993" dy="525" grid="1" gridSize="10" guides="1" tooltips="1" connect="1" arrows="1" fold="1" page="1" pageScale="1" pageWidth="827" pageHeight="1169" math="0" shadow="0">
      <root>
        <mxCell id="WIyWlLk6GJQsqaUBKTNV-0" />
        <mxCell id="WIyWlLk6GJQsqaUBKTNV-1" parent="WIyWlLk6GJQsqaUBKTNV-0" />
        <mxCell id="zkfFHV4jXpPFQw0GAbJ--0" value="Compte" style="swimlane;fontStyle=2;align=center;verticalAlign=top;childLayout=stackLayout;horizontal=1;startSize=26;horizontalStack=0;resizeParent=1;resizeLast=0;collapsible=1;marginBottom=0;rounded=0;shadow=0;strokeWidth=1;" parent="WIyWlLk6GJQsqaUBKTNV-1" vertex="1">
          <mxGeometry x="21" y="110" width="350" height="220" as="geometry">
            <mxRectangle x="230" y="140" width="160" height="26" as="alternateBounds" />
          </mxGeometry>
        </mxCell>
        <mxCell id="zkfFHV4jXpPFQw0GAbJ--1" value="static int get_id&#xa;protected String pseudo&#xa;protected int id" style="text;align=left;verticalAlign=top;spacingLeft=4;spacingRight=4;overflow=hidden;rotatable=0;points=[[0,0.5],[1,0.5]];portConstraint=eastwest;" parent="zkfFHV4jXpPFQw0GAbJ--0" vertex="1">
          <mxGeometry y="26" width="350" height="44" as="geometry" />
        </mxCell>
        <mxCell id="zkfFHV4jXpPFQw0GAbJ--2" value="protected String password&#xa;protected Boolean active&#xa;protected ArrayList&lt;Personnage&gt; liste_personnage" style="text;align=left;verticalAlign=top;spacingLeft=4;spacingRight=4;overflow=hidden;rotatable=0;points=[[0,0.5],[1,0.5]];portConstraint=eastwest;rounded=0;shadow=0;html=0;" parent="zkfFHV4jXpPFQw0GAbJ--0" vertex="1">
          <mxGeometry y="70" width="350" height="48" as="geometry" />
        </mxCell>
        <mxCell id="zkfFHV4jXpPFQw0GAbJ--4" value="" style="line;html=1;strokeWidth=1;align=left;verticalAlign=middle;spacingTop=-1;spacingLeft=3;spacingRight=3;rotatable=0;labelPosition=right;points=[];portConstraint=eastwest;" parent="zkfFHV4jXpPFQw0GAbJ--0" vertex="1">
          <mxGeometry y="118" width="350" height="8" as="geometry" />
        </mxCell>
        <mxCell id="zkfFHV4jXpPFQw0GAbJ--5" value="public Compte(String pseudo, String password)&#xa;public Boolean ajouter_personnage(Personnage personnage)&#xa;public Boolean supprimer_personnage(int id)&#xa;public void enregistrer()&#xa;public void ToString()" style="text;align=left;verticalAlign=top;spacingLeft=4;spacingRight=4;overflow=hidden;rotatable=0;points=[[0,0.5],[1,0.5]];portConstraint=eastwest;" parent="zkfFHV4jXpPFQw0GAbJ--0" vertex="1">
          <mxGeometry y="126" width="350" height="76" as="geometry" />
        </mxCell>
        <mxCell id="w7G9YBBGKHnngfm891Rs-0" value="Base_de_donnees" style="swimlane;fontStyle=2;align=center;verticalAlign=top;childLayout=stackLayout;horizontal=1;startSize=26;horizontalStack=0;resizeParent=1;resizeLast=0;collapsible=1;marginBottom=0;rounded=0;shadow=0;strokeWidth=1;" parent="WIyWlLk6GJQsqaUBKTNV-1" vertex="1">
          <mxGeometry x="470" y="160" width="340" height="170" as="geometry">
            <mxRectangle x="230" y="140" width="160" height="26" as="alternateBounds" />
          </mxGeometry>
        </mxCell>
        <mxCell id="w7G9YBBGKHnngfm891Rs-1" value="public ArrayList&lt;Personnage&gt; users" style="text;align=left;verticalAlign=top;spacingLeft=4;spacingRight=4;overflow=hidden;rotatable=0;points=[[0,0.5],[1,0.5]];portConstraint=eastwest;" parent="w7G9YBBGKHnngfm891Rs-0" vertex="1">
          <mxGeometry y="26" width="340" height="34" as="geometry" />
        </mxCell>
        <mxCell id="w7G9YBBGKHnngfm891Rs-3" value="" style="line;html=1;strokeWidth=1;align=left;verticalAlign=middle;spacingTop=-1;spacingLeft=3;spacingRight=3;rotatable=0;labelPosition=right;points=[];portConstraint=eastwest;" parent="w7G9YBBGKHnngfm891Rs-0" vertex="1">
          <mxGeometry y="60" width="340" height="8" as="geometry" />
        </mxCell>
        <mxCell id="w7G9YBBGKHnngfm891Rs-5" value="public Compte authenticate(String pseudo, String password)&#xa;public String hash_password(String password)&#xa;publid void ajouter_compte(Compte compte)&#xa;public void supprime_compte(int id)&#xa;public void  desactive_compte(int id)&#xa;public void ToString()" style="text;align=left;verticalAlign=top;spacingLeft=4;spacingRight=4;overflow=hidden;rotatable=0;points=[[0,0.5],[1,0.5]];portConstraint=eastwest;" parent="w7G9YBBGKHnngfm891Rs-0" vertex="1">
          <mxGeometry y="68" width="340" height="102" as="geometry" />
        </mxCell>
        <mxCell id="w7G9YBBGKHnngfm891Rs-11" value="Personnage" style="swimlane;fontStyle=2;align=center;verticalAlign=top;childLayout=stackLayout;horizontal=1;startSize=26;horizontalStack=0;resizeParent=1;resizeLast=0;collapsible=1;marginBottom=0;rounded=0;shadow=0;strokeWidth=1;" parent="WIyWlLk6GJQsqaUBKTNV-1" vertex="1">
          <mxGeometry x="10" y="585" width="420" height="320" as="geometry">
            <mxRectangle x="230" y="140" width="160" height="26" as="alternateBounds" />
          </mxGeometry>
        </mxCell>
        <mxCell id="w7G9YBBGKHnngfm891Rs-12" value="static Int get_id&#xa;protected int id&#xa;protected String nom" style="text;align=left;verticalAlign=top;spacingLeft=4;spacingRight=4;overflow=hidden;rotatable=0;points=[[0,0.5],[1,0.5]];portConstraint=eastwest;" parent="w7G9YBBGKHnngfm891Rs-11" vertex="1">
          <mxGeometry y="26" width="420" height="44" as="geometry" />
        </mxCell>
        <mxCell id="w7G9YBBGKHnngfm891Rs-13" value="protected Image portrait&#xa;protected String biographie&#xa;protected ArrayList&lt;Statistique&gt; stats&#xa;protected ArrayList&lt;Competence&gt; competences&#xa;protected ArrayList&lt;Equipement&gt; equipements&#xa;protected String classse " style="text;align=left;verticalAlign=top;spacingLeft=4;spacingRight=4;overflow=hidden;rotatable=0;points=[[0,0.5],[1,0.5]];portConstraint=eastwest;rounded=0;shadow=0;html=0;" parent="w7G9YBBGKHnngfm891Rs-11" vertex="1">
          <mxGeometry y="70" width="420" height="90" as="geometry" />
        </mxCell>
        <mxCell id="w7G9YBBGKHnngfm891Rs-14" value="" style="line;html=1;strokeWidth=1;align=left;verticalAlign=middle;spacingTop=-1;spacingLeft=3;spacingRight=3;rotatable=0;labelPosition=right;points=[];portConstraint=eastwest;" parent="w7G9YBBGKHnngfm891Rs-11" vertex="1">
          <mxGeometry y="160" width="420" height="8" as="geometry" />
        </mxCell>
        <mxCell id="w7G9YBBGKHnngfm891Rs-15" value="public Personnage(String nom, Image portrait, String biographie,&#xa;    ArrayList&lt;Statistique&gt; statistiques, ArrayList&lt;Competence&gt; competences,&#xa;    ArrayList&lt;Equipement&gt; equipement, String classe)&#xa;public Booleen modifier_nom(String nom)&#xa;public Boolean modifier_portrait(Image portrait)&#xa;public Boolean modifier_biographie(String biographie)&#xa;public Boolean ajouter_statistiques(Statistique stat)&#xa;public Boolean ajouter_competence(Competence comp)&#xa;public Boolean ajouter_equipement(Equipe!ent equip)&#xa;public void ToString()" style="text;align=left;verticalAlign=top;spacingLeft=4;spacingRight=4;overflow=hidden;rotatable=0;points=[[0,0.5],[1,0.5]];portConstraint=eastwest;" parent="w7G9YBBGKHnngfm891Rs-11" vertex="1">
          <mxGeometry y="168" width="420" height="152" as="geometry" />
        </mxCell>
        <mxCell id="w7G9YBBGKHnngfm891Rs-20" value="Compétence" style="swimlane;fontStyle=2;align=center;verticalAlign=top;childLayout=stackLayout;horizontal=1;startSize=26;horizontalStack=0;resizeParent=1;resizeLast=0;collapsible=1;marginBottom=0;rounded=0;shadow=0;strokeWidth=1;" parent="WIyWlLk6GJQsqaUBKTNV-1" vertex="1">
          <mxGeometry x="500" y="740" width="430" height="200" as="geometry">
            <mxRectangle x="230" y="140" width="160" height="26" as="alternateBounds" />
          </mxGeometry>
        </mxCell>
        <mxCell id="w7G9YBBGKHnngfm891Rs-21" value="static int get_id&#xa;public int id&#xa;public String nom&#xa;public String description&#xa;static ArrayList&lt;Competence&gt; liste_competence&#xa;" style="text;align=left;verticalAlign=top;spacingLeft=4;spacingRight=4;overflow=hidden;rotatable=0;points=[[0,0.5],[1,0.5]];portConstraint=eastwest;" parent="w7G9YBBGKHnngfm891Rs-20" vertex="1">
          <mxGeometry y="26" width="430" height="84" as="geometry" />
        </mxCell>
        <mxCell id="w7G9YBBGKHnngfm891Rs-22" value="" style="line;html=1;strokeWidth=1;align=left;verticalAlign=middle;spacingTop=-1;spacingLeft=3;spacingRight=3;rotatable=0;labelPosition=right;points=[];portConstraint=eastwest;" parent="w7G9YBBGKHnngfm891Rs-20" vertex="1">
          <mxGeometry y="110" width="430" height="8" as="geometry" />
        </mxCell>
        <mxCell id="w7G9YBBGKHnngfm891Rs-23" value="public int renommer(String nouveau_nom)&#xa;public int ajouter_description(String nouvelle_description)&#xa;public void supprime_globale(int id)&#xa;public ajoute_globale(Equipement p)&#xa;public void ToString()" style="text;align=left;verticalAlign=top;spacingLeft=4;spacingRight=4;overflow=hidden;rotatable=0;points=[[0,0.5],[1,0.5]];portConstraint=eastwest;" parent="w7G9YBBGKHnngfm891Rs-20" vertex="1">
          <mxGeometry y="118" width="430" height="82" as="geometry" />
        </mxCell>
        <mxCell id="w7G9YBBGKHnngfm891Rs-24" value="Statistique" style="swimlane;fontStyle=2;align=center;verticalAlign=top;childLayout=stackLayout;horizontal=1;startSize=26;horizontalStack=0;resizeParent=1;resizeLast=0;collapsible=1;marginBottom=0;rounded=0;shadow=0;strokeWidth=1;" parent="WIyWlLk6GJQsqaUBKTNV-1" vertex="1">
          <mxGeometry x="390" y="1000" width="340" height="210" as="geometry">
            <mxRectangle x="230" y="140" width="160" height="26" as="alternateBounds" />
          </mxGeometry>
        </mxCell>
        <mxCell id="w7G9YBBGKHnngfm891Rs-25" value="static int get_id&#xa;public int id&#xa;public String description&#xa;public int valeur&#xa;static ArrayList&lt;Statistique&gt; liste_stats" style="text;align=left;verticalAlign=top;spacingLeft=4;spacingRight=4;overflow=hidden;rotatable=0;points=[[0,0.5],[1,0.5]];portConstraint=eastwest;" parent="w7G9YBBGKHnngfm891Rs-24" vertex="1">
          <mxGeometry y="26" width="340" height="74" as="geometry" />
        </mxCell>
        <mxCell id="w7G9YBBGKHnngfm891Rs-26" value="" style="line;html=1;strokeWidth=1;align=left;verticalAlign=middle;spacingTop=-1;spacingLeft=3;spacingRight=3;rotatable=0;labelPosition=right;points=[];portConstraint=eastwest;" parent="w7G9YBBGKHnngfm891Rs-24" vertex="1">
          <mxGeometry y="100" width="340" height="8" as="geometry" />
        </mxCell>
        <mxCell id="w7G9YBBGKHnngfm891Rs-27" value="public int renommer(String nouveau_nom)&#xa;public int change_valeur(int id, int valeur)&#xa;public int ajouter_description(String nouvelle_description)&#xa;public void supprime_globale(int id)&#xa;public ajoute_globale(Equipement p)&#xa;public void ToString()" style="text;align=left;verticalAlign=top;spacingLeft=4;spacingRight=4;overflow=hidden;rotatable=0;points=[[0,0.5],[1,0.5]];portConstraint=eastwest;" parent="w7G9YBBGKHnngfm891Rs-24" vertex="1">
          <mxGeometry y="108" width="340" height="102" as="geometry" />
        </mxCell>
        <mxCell id="w7G9YBBGKHnngfm891Rs-33" value="Est stocké" style="endArrow=classic;html=1;rounded=0;exitX=1.031;exitY=0.077;exitDx=0;exitDy=0;exitPerimeter=0;entryX=-0.006;entryY=0.222;entryDx=0;entryDy=0;entryPerimeter=0;" parent="WIyWlLk6GJQsqaUBKTNV-1" source="zkfFHV4jXpPFQw0GAbJ--5" target="w7G9YBBGKHnngfm891Rs-5" edge="1">
          <mxGeometry relative="1" as="geometry">
            <mxPoint x="350" y="260" as="sourcePoint" />
            <mxPoint x="510" y="260" as="targetPoint" />
          </mxGeometry>
        </mxCell>
        <mxCell id="w7G9YBBGKHnngfm891Rs-35" value="1, *" style="edgeLabel;resizable=0;html=1;;align=left;verticalAlign=bottom;" parent="w7G9YBBGKHnngfm891Rs-33" connectable="0" vertex="1">
          <mxGeometry x="-1" relative="1" as="geometry" />
        </mxCell>
        <mxCell id="w7G9YBBGKHnngfm891Rs-36" value="&lt;div&gt;&lt;br&gt;&lt;/div&gt;&lt;div&gt;&lt;br&gt;&lt;/div&gt;" style="edgeLabel;resizable=0;html=1;;align=right;verticalAlign=bottom;" parent="w7G9YBBGKHnngfm891Rs-33" connectable="0" vertex="1">
          <mxGeometry x="1" relative="1" as="geometry" />
        </mxCell>
        <mxCell id="w7G9YBBGKHnngfm891Rs-43" value="Est stocké" style="endArrow=classic;html=1;rounded=0;exitX=0.5;exitY=0;exitDx=0;exitDy=0;" parent="WIyWlLk6GJQsqaUBKTNV-1" source="w7G9YBBGKHnngfm891Rs-11" edge="1">
          <mxGeometry relative="1" as="geometry">
            <mxPoint x="70" y="463" as="sourcePoint" />
            <mxPoint x="190" y="340" as="targetPoint" />
          </mxGeometry>
        </mxCell>
        <mxCell id="w7G9YBBGKHnngfm891Rs-45" value="1, *" style="edgeLabel;resizable=0;html=1;;align=left;verticalAlign=bottom;" parent="w7G9YBBGKHnngfm891Rs-43" connectable="0" vertex="1">
          <mxGeometry x="-1" relative="1" as="geometry" />
        </mxCell>
        <mxCell id="w7G9YBBGKHnngfm891Rs-46" value="&lt;div&gt;&lt;br&gt;&lt;/div&gt;&lt;div&gt;&lt;br&gt;&lt;/div&gt;" style="edgeLabel;resizable=0;html=1;;align=right;verticalAlign=bottom;" parent="w7G9YBBGKHnngfm891Rs-43" connectable="0" vertex="1">
          <mxGeometry x="1" relative="1" as="geometry" />
        </mxCell>
        <mxCell id="w7G9YBBGKHnngfm891Rs-47" value="Est possédé" style="endArrow=classic;html=1;rounded=0;exitX=0.5;exitY=0;exitDx=0;exitDy=0;" parent="WIyWlLk6GJQsqaUBKTNV-1" source="935bphfF8JFD43UFjBDH-9" edge="1">
          <mxGeometry relative="1" as="geometry">
            <mxPoint x="220" y="970" as="sourcePoint" />
            <mxPoint x="190" y="900" as="targetPoint" />
          </mxGeometry>
        </mxCell>
        <mxCell id="w7G9YBBGKHnngfm891Rs-48" value="1, *" style="edgeLabel;resizable=0;html=1;;align=left;verticalAlign=bottom;" parent="w7G9YBBGKHnngfm891Rs-47" connectable="0" vertex="1">
          <mxGeometry x="-1" relative="1" as="geometry" />
        </mxCell>
        <mxCell id="w7G9YBBGKHnngfm891Rs-49" value="&lt;div&gt;&lt;br&gt;&lt;/div&gt;&lt;div&gt;&lt;br&gt;&lt;/div&gt;" style="edgeLabel;resizable=0;html=1;;align=right;verticalAlign=bottom;" parent="w7G9YBBGKHnngfm891Rs-47" connectable="0" vertex="1">
          <mxGeometry x="1" relative="1" as="geometry" />
        </mxCell>
        <mxCell id="w7G9YBBGKHnngfm891Rs-53" value="Est possédé" style="endArrow=classic;html=1;rounded=0;exitX=0.527;exitY=0.028;exitDx=0;exitDy=0;entryX=1.021;entryY=0.836;entryDx=0;entryDy=0;entryPerimeter=0;exitPerimeter=0;" parent="WIyWlLk6GJQsqaUBKTNV-1" source="w7G9YBBGKHnngfm891Rs-20" target="w7G9YBBGKHnngfm891Rs-13" edge="1">
          <mxGeometry relative="1" as="geometry">
            <mxPoint x="487" y="740" as="sourcePoint" />
            <mxPoint x="457" y="620" as="targetPoint" />
          </mxGeometry>
        </mxCell>
        <mxCell id="w7G9YBBGKHnngfm891Rs-54" value="1, *" style="edgeLabel;resizable=0;html=1;;align=left;verticalAlign=bottom;" parent="w7G9YBBGKHnngfm891Rs-53" connectable="0" vertex="1">
          <mxGeometry x="-1" relative="1" as="geometry" />
        </mxCell>
        <mxCell id="w7G9YBBGKHnngfm891Rs-55" value="&lt;div&gt;&lt;br&gt;&lt;/div&gt;&lt;div&gt;&lt;br&gt;&lt;/div&gt;" style="edgeLabel;resizable=0;html=1;;align=right;verticalAlign=bottom;" parent="w7G9YBBGKHnngfm891Rs-53" connectable="0" vertex="1">
          <mxGeometry x="1" relative="1" as="geometry" />
        </mxCell>
        <mxCell id="w7G9YBBGKHnngfm891Rs-56" value="Est possédé" style="endArrow=classic;html=1;rounded=0;exitX=0.5;exitY=0;exitDx=0;exitDy=0;entryX=1.008;entryY=1.036;entryDx=0;entryDy=0;entryPerimeter=0;" parent="WIyWlLk6GJQsqaUBKTNV-1" source="w7G9YBBGKHnngfm891Rs-24" target="w7G9YBBGKHnngfm891Rs-15" edge="1">
          <mxGeometry relative="1" as="geometry">
            <mxPoint x="680" y="911" as="sourcePoint" />
            <mxPoint x="650" y="791" as="targetPoint" />
          </mxGeometry>
        </mxCell>
        <mxCell id="w7G9YBBGKHnngfm891Rs-57" value="1, *" style="edgeLabel;resizable=0;html=1;;align=left;verticalAlign=bottom;" parent="w7G9YBBGKHnngfm891Rs-56" connectable="0" vertex="1">
          <mxGeometry x="-1" relative="1" as="geometry" />
        </mxCell>
        <mxCell id="w7G9YBBGKHnngfm891Rs-58" value="&lt;div&gt;&lt;br&gt;&lt;/div&gt;&lt;div&gt;&lt;br&gt;&lt;/div&gt;" style="edgeLabel;resizable=0;html=1;;align=right;verticalAlign=bottom;" parent="w7G9YBBGKHnngfm891Rs-56" connectable="0" vertex="1">
          <mxGeometry x="1" relative="1" as="geometry" />
        </mxCell>
        <mxCell id="935bphfF8JFD43UFjBDH-9" value="Equipement" style="swimlane;fontStyle=2;align=center;verticalAlign=top;childLayout=stackLayout;horizontal=1;startSize=26;horizontalStack=0;resizeParent=1;resizeLast=0;collapsible=1;marginBottom=0;rounded=0;shadow=0;strokeWidth=1;" parent="WIyWlLk6GJQsqaUBKTNV-1" vertex="1">
          <mxGeometry x="25" y="1000" width="340" height="190" as="geometry">
            <mxRectangle x="230" y="140" width="160" height="26" as="alternateBounds" />
          </mxGeometry>
        </mxCell>
        <mxCell id="935bphfF8JFD43UFjBDH-10" value="static int get_id&#xa;public int id&#xa;public String nom&#xa;public String description&#xa;static ArrayList&lt;Equipement&gt; liste_equipement" style="text;align=left;verticalAlign=top;spacingLeft=4;spacingRight=4;overflow=hidden;rotatable=0;points=[[0,0.5],[1,0.5]];portConstraint=eastwest;" parent="935bphfF8JFD43UFjBDH-9" vertex="1">
          <mxGeometry y="26" width="340" height="74" as="geometry" />
        </mxCell>
        <mxCell id="935bphfF8JFD43UFjBDH-11" value="" style="line;html=1;strokeWidth=1;align=left;verticalAlign=middle;spacingTop=-1;spacingLeft=3;spacingRight=3;rotatable=0;labelPosition=right;points=[];portConstraint=eastwest;" parent="935bphfF8JFD43UFjBDH-9" vertex="1">
          <mxGeometry y="100" width="340" height="8" as="geometry" />
        </mxCell>
        <mxCell id="935bphfF8JFD43UFjBDH-12" value="public int renommer(String nouveau_nom)&#xa;public int ajouter_description(String nouvelle_description)&#xa;public void supprime_globale(int id)&#xa;public ajoute_globale(Equipement p)&#xa;public void ToString()" style="text;align=left;verticalAlign=top;spacingLeft=4;spacingRight=4;overflow=hidden;rotatable=0;points=[[0,0.5],[1,0.5]];portConstraint=eastwest;" parent="935bphfF8JFD43UFjBDH-9" vertex="1">
          <mxGeometry y="108" width="340" height="82" as="geometry" />
        </mxCell>
      </root>
    </mxGraphModel>
  </diagram>
</mxfile>
